<svg width="72" height="71" viewBox="0 0 72 71" fill="none" xmlns="http://www.w3.org/2000/svg">
<path d="M15.3654 9.41564L15.3494 9.41666H15.3335C12.3466 9.41666 9.91682 11.8464 9.91682 14.8333V50.3333C9.91682 53.3202 12.3466 55.75 15.3335 55.75H56.7502H56.9573L57.1037 55.8964L68.0835 66.8762V14.8333C68.0835 13.3626 67.2625 11.5143 65.9076 9.88807C64.5766 8.2905 62.7959 6.98727 60.9528 6.50403L15.3654 9.41564Z" fill="#191A1C" stroke="#191A1C"/>
<path d="M53.7502 52.75H53.9573L54.1037 52.8964L65.0835 63.8762V11.8333C65.0835 8.84639 62.6537 6.41663 59.6668 6.41663H12.3335C9.34659 6.41663 6.91682 8.84639 6.91682 11.8333V47.3333C6.91682 50.3202 9.34659 52.75 12.3335 52.75H53.7502Z" fill="#DD4078" stroke="#191A1C"/>
<mask id="mask0_223_805" style="mask-type:alpha" maskUnits="userSpaceOnUse" x="6" y="5" width="60" height="61">
<path d="M53.7502 52.75H53.9573L54.1037 52.8964L65.0835 63.8762V11.8333C65.0835 8.84639 62.6537 6.41663 59.6668 6.41663H12.3335C9.34659 6.41663 6.91682 8.84639 6.91682 11.8333V47.3333C6.91682 50.3202 9.34659 52.75 12.3335 52.75H53.7502Z" fill="#DD4078" stroke="#191A1C"/>
</mask>
<g mask="url(#mask0_223_805)">
<path opacity="0.2" d="M36.6517 -7.70675L17.2814 -21.2267L-12.8978 41.0507L5.14504 57.484L36.6517 -7.70675Z" fill="#F3518B"/>
<path opacity="0.2" d="M40.7702 -9.77773L39.0711 -10.3803L8.89197 51.8971L9.26356 55.413L40.7702 -9.77773Z" fill="#F3518B"/>
</g>
<path d="M53.7502 52.75H53.9573L54.1037 52.8964L65.0835 63.8762V11.8333C65.0835 8.84639 62.6537 6.41663 59.6668 6.41663H12.3335C9.34659 6.41663 6.91682 8.84639 6.91682 11.8333V47.3333C6.91682 50.3202 9.34659 52.75 12.3335 52.75H53.7502Z" stroke="#191A1C"/>
<path d="M38.4165 43.5833H32.4998V37.6667H38.4165V43.5833Z" fill="white"/>
<path d="M38.4165 31.75H32.4998V14H38.4165V31.75Z" fill="white"/>
</svg>
